HIERARCHY
ROOT m_avg_root
{
	OFFSET 0.000000 0.000000 0.000000
	CHANNELS 6 Xposition Yposition Zposition Xrotation Yrotation Zrotation
	JOINT m_avg_Pelvis
	{
		OFFSET -0.002174 0.972724 0.028584
		CHANNELS 6 Xposition Yposition Zposition Xrotation Yrotation Zrotation
		JOINT m_avg_L_Hip
		{
			OFFSET 0.058581 -0.082280 -0.017664
			CHANNELS 6 Xposition Yposition Zposition Xrotation Yrotation Zrotation
			JOINT m_avg_L_Knee
			{
				OFFSET 0.043451 -0.386469 0.008037
				CHANNELS 6 Xposition Yposition Zposition Xrotation Yrotation Zrotation
				JOINT m_avg_L_Ankle
				{
					OFFSET -0.014790 -0.426874 -0.037428
					CHANNELS 6 Xposition Yposition Zposition Xrotation Yrotation Zrotation
					JOINT m_avg_L_Foot
					{
						OFFSET 0.041054 -0.060286 0.122042
						CHANNELS 6 Xposition Yposition Zposition Xrotation Yrotation Zrotation
						End Site
						{
							OFFSET 0.000000 0.142177 0.000000
						}
					}
				}
			}
		}
		JOINT m_avg_R_Hip
		{
			OFFSET -0.060310 -0.090513 -0.013543
			CHANNELS 6 Xposition Yposition Zposition Xrotation Yrotation Zrotation
			JOINT m_avg_R_Knee
			{
				OFFSET -0.043257 -0.383688 -0.004843
				CHANNELS 6 Xposition Yposition Zposition Xrotation Yrotation Zrotation
				JOINT m_avg_R_Ankle
				{
					OFFSET 0.019056 -0.420046 -0.034562
					CHANNELS 6 Xposition Yposition Zposition Xrotation Yrotation Zrotation
					JOINT m_avg_R_Foot
					{
						OFFSET -0.034840 -0.062106 0.130323
						CHANNELS 6 Xposition Yposition Zposition Xrotation Yrotation Zrotation
						End Site
						{
							OFFSET 0.000000 0.148510 0.000000
						}
					}
				}
			}
		}
		JOINT m_avg_Spine1
		{
			OFFSET 0.004439 0.124404 -0.038385
			CHANNELS 6 Xposition Yposition Zposition Xrotation Yrotation Zrotation
			JOINT m_avg_Spine2
			{
				OFFSET 0.004488 0.137956 0.026820
				CHANNELS 6 Xposition Yposition Zposition Xrotation Yrotation Zrotation
				JOINT m_avg_Spine3
				{
					OFFSET -0.002265 0.056032 0.002855
					CHANNELS 6 Xposition Yposition Zposition Xrotation Yrotation Zrotation
					JOINT m_avg_Neck
					{
						OFFSET -0.013390 0.211635 -0.033468
						CHANNELS 6 Xposition Yposition Zposition Xrotation Yrotation Zrotation
						JOINT m_avg_Head
						{
							OFFSET 0.010113 0.088937 0.050410
							CHANNELS 6 Xposition Yposition Zposition Xrotation Yrotation Zrotation
							End Site
							{
								OFFSET 0.000000 0.102729 0.000000
							}
						}
					}
					JOINT m_avg_L_Collar
					{
						OFFSET 0.071702 0.114000 -0.018898
						CHANNELS 6 Xposition Yposition Zposition Xrotation Yrotation Zrotation
						JOINT m_avg_L_Shoulder
						{
							OFFSET 0.122921 0.045205 -0.019046
							CHANNELS 6 Xposition Yposition Zposition Xrotation Yrotation Zrotation
							JOINT m_avg_L_Elbow
							{
								OFFSET 0.255332 -0.015649 -0.022946
								CHANNELS 6 Xposition Yposition Zposition Xrotation Yrotation Zrotation
								JOINT m_avg_L_Wrist
								{
									OFFSET 0.265709 0.012698 -0.007375
									CHANNELS 6 Xposition Yposition Zposition Xrotation Yrotation Zrotation
									JOINT m_avg_L_Hand
									{
										OFFSET 0.086691 -0.010636 -0.015594
										CHANNELS 6 Xposition Yposition Zposition Xrotation Yrotation Zrotation
										End Site
										{
											OFFSET 0.000000 0.088722 0.000000
										}
									}
								}
							}
						}
					}
					JOINT m_avg_R_Collar
					{
						OFFSET -0.082954 0.112472 -0.023707
						CHANNELS 6 Xposition Yposition Zposition Xrotation Yrotation Zrotation
						JOINT m_avg_R_Shoulder
						{
							OFFSET -0.113228 0.046853 -0.008472
							CHANNELS 6 Xposition Yposition Zposition Xrotation Yrotation Zrotation
							JOINT m_avg_R_Elbow
							{
								OFFSET -0.260127 -0.014369 -0.031269
								CHANNELS 6 Xposition Yposition Zposition Xrotation Yrotation Zrotation
								JOINT m_avg_R_Wrist
								{
									OFFSET -0.269108 0.006794 -0.006027
									CHANNELS 6 Xposition Yposition Zposition Xrotation Yrotation Zrotation
									JOINT m_avg_R_Hand
									{
										OFFSET -0.088754 -0.008652 -0.010107
										CHANNELS 6 Xposition Yposition Zposition Xrotation Yrotation Zrotation
										End Site
										{
											OFFSET 0.000000 0.089745 0.000000
										}
									}
								}
							}
						}
					}
				}
			}
		}
	}
}
MOTION
Frames: 4
Frame Time: 0.041667
0.011087 -0.158839 2.663215 -0.000000 0.000000 -0.000000 0.008913 0.813885 2.691798 -178.408393 -2.211046 3.602444 0.058581 -0.082280 -0.017664 -9.837850 -7.668083 14.726492 0.043452 -0.386469 0.008037 26.141308 -12.471708 -2.418522 -0.014790 -0.426874 -0.037428 8.890346 -0.677390 -16.905458 0.041054 -0.060286 0.122042 -13.922248 1.275773 19.544404 -0.060310 -0.090513 -0.013543 -13.426788 1.988425 -12.739713 -0.043257 -0.383688 -0.004844 25.536105 8.417332 1.772962 0.019056 -0.420046 -0.034563 5.082028 -5.407777 15.669675 -0.034840 -0.062106 0.130323 -10.733456 2.058870 -17.137979 0.004439 0.124404 -0.038386 9.657543 0.527118 1.104740 0.004488 0.137956 0.026821 -2.980657 0.822923 -4.528550 -0.002265 0.056033 0.002855 7.710082 1.197441 -4.602379 -0.013390 0.211636 -0.033467 2.786580 -2.835190 -5.343461 0.010113 0.088937 0.050410 12.981867 -0.876490 -4.145256 0.071702 0.114000 -0.018898 -3.326075 0.269408 -7.408350 0.122921 0.045205 -0.019046 3.763969 1.615493 -48.057433 0.255332 -0.015649 -0.022946 7.954988 -58.916351 37.267230 0.265709 0.012698 -0.007374 -11.310369 -6.046034 11.118003 0.086691 -0.010636 -0.015594 -5.247096 -5.009815 -11.976776 -0.082954 0.112472 -0.023707 -16.765814 7.350762 2.410453 -0.113228 0.046853 -0.008471 -20.101129 16.909742 31.832103 -0.260127 -0.014369 -0.031269 57.388875 73.210011 -92.843964 -0.269109 0.006794 -0.006027 -6.614686 7.805883 -13.215905 -0.088754 -0.008651 -0.010107 -5.171917 5.270761 13.244136 
0.013381 -0.175941 2.670592 -0.000000 0.000000 -0.000000 0.011207 0.796783 2.699176 -175.941739 -1.636392 3.426486 0.058581 -0.082280 -0.017664 -13.090280 -7.137737 13.126637 0.043452 -0.386469 0.008037 25.026412 -11.495260 -2.565215 -0.014790 -0.426875 -0.037428 8.833916 0.689288 -16.105784 0.041054 -0.060286 0.122042 -13.653307 1.863165 18.765767 -0.060310 -0.090513 -0.013543 -16.174807 3.414381 -10.987931 -0.043257 -0.383688 -0.004843 24.079830 8.548670 1.522275 0.019056 -0.420046 -0.034562 5.639467 -5.105628 15.488219 -0.034840 -0.062105 0.130323 -9.961038 2.706712 -17.267862 0.004439 0.124404 -0.038385 10.584643 0.380883 1.264527 0.004488 0.137957 0.026820 -3.817281 0.699268 -4.322595 -0.002265 0.056032 0.002856 6.139714 1.010064 -4.268179 -0.013390 0.211636 -0.033467 0.387523 -1.550384 -5.526026 0.010113 0.088937 0.050409 12.459993 -0.535790 -3.786073 0.071702 0.114000 -0.018898 -5.036819 -1.556981 -7.589082 0.122921 0.045205 -0.019046 -0.467063 -3.150173 -47.160537 0.255332 -0.015649 -0.022947 19.017646 -64.599403 48.669708 0.265709 0.012698 -0.007375 -10.577997 -6.572327 11.886240 0.086691 -0.010635 -0.015594 -5.008667 -4.770338 -11.917627 -0.082954 0.112472 -0.023707 -16.411509 8.453304 3.324505 -0.113228 0.046853 -0.008472 -18.332706 17.508903 34.307808 -0.260128 -0.014369 -0.031269 65.708872 73.053313 -100.072913 -0.269108 0.006794 -0.006027 -6.125046 8.137784 -13.633845 -0.088754 -0.008652 -0.010107 -5.026080 5.320560 13.127885 
0.016720 -0.191084 2.678343 -0.000000 0.000000 -0.000000 0.014547 0.781640 2.706927 -173.280301 -1.042256 3.181692 0.058581 -0.082280 -0.017663 -16.239036 -6.323796 10.285861 0.043452 -0.386470 0.008038 23.913653 -10.550667 -2.806873 -0.014790 -0.426874 -0.037428 8.563109 1.789631 -15.383461 0.041054 -0.060286 0.122042 -13.412715 2.372242 17.984376 -0.060310 -0.090513 -0.013542 -18.757083 4.578495 -8.195711 -0.043257 -0.383688 -0.004842 22.690877 8.806533 1.742767 0.019056 -0.420046 -0.034562 6.081453 -4.642006 15.342277 -0.034840 -0.062106 0.130324 -9.210138 3.395685 -17.395315 0.004439 0.124403 -0.038384 11.478668 0.249168 1.438609 0.004488 0.137956 0.026821 -4.681596 0.584444 -4.107391 -0.002265 0.056033 0.002856 4.361466 0.870206 -3.898510 -0.013390 0.211635 -0.033468 -2.150457 -0.355633 -5.540254 0.010113 0.088937 0.050411 11.806208 -0.245521 -3.367647 0.071703 0.114000 -0.018899 -6.741059 -3.387691 -7.824644 0.122921 0.045205 -0.019046 -4.597018 -8.092759 -46.698365 0.255332 -0.015649 -0.022947 35.470378 -68.931068 65.391459 0.265709 0.012698 -0.007374 -9.839783 -7.088276 12.655380 0.086691 -0.010636 -0.015594 -4.769767 -4.527154 -11.851876 -0.082954 0.112472 -0.023707 -16.085982 9.609831 4.204708 -0.113228 0.046853 -0.008472 -16.645046 18.562229 36.735855 -0.260127 -0.014369 -0.031269 74.900660 72.507478 -108.084656 -0.269109 0.006794 -0.006027 -5.632474 8.463215 -14.048207 -0.088753 -0.008652 -0.010107 -4.876872 5.354647 13.002765 
0.022623 -0.198739 2.686976 -0.000000 0.000000 -0.000000 0.020450 0.773985 2.715560 -170.134248 -0.531914 2.845960 0.058581 -0.082280 -0.017663 -19.304418 -5.390258 7.023389 0.043451 -0.386469 0.008036 22.821182 -9.630818 -3.041627 -0.014790 -0.426874 -0.037428 8.085485 2.761571 -14.668555 0.041054 -0.060286 0.122043 -13.205016 2.835138 17.217353 -0.060310 -0.090513 -0.013542 -20.695215 5.342341 -5.603319 -0.043257 -0.383688 -0.004843 21.815539 8.828962 1.771891 0.019056 -0.420046 -0.034562 6.260872 -4.458989 15.133256 -0.034840 -0.062105 0.130323 -8.552144 4.050704 -17.484726 0.004439 0.124404 -0.038385 12.397444 0.166839 1.645623 0.004488 0.137956 0.026821 -5.515057 0.508610 -3.854039 -0.002265 0.056033 0.002855 2.603227 0.983818 -3.326639 -0.013390 0.211635 -0.033468 -4.741616 0.663891 -5.459894 0.010113 0.088937 0.050410 10.977923 -0.061679 -2.985265 0.071702 0.113999 -0.018898 -8.397845 -5.204589 -8.058755 0.122921 0.045205 -0.019046 -8.472162 -13.142374 -46.367378 0.255332 -0.015649 -0.022947 57.221194 -70.904460 87.248249 0.265710 0.012698 -0.007375 -9.096145 -7.589779 13.415249 0.086691 -0.010636 -0.015594 -4.534333 -4.283471 -11.773305 -0.082954 0.112472 -0.023708 -15.780167 10.859072 5.031449 -0.113228 0.046853 -0.008472 -15.012197 20.371237 39.130215 -0.260127 -0.014370 -0.031269 84.986767 71.390073 -116.724777 -0.269109 0.006793 -0.006027 -5.137437 8.778277 -14.447436 -0.088754 -0.008652 -0.010107 -4.721344 5.364214 12.858185 
